<svg width="24" height="24" fill="none" xmlns="http://www.w3.org/2000/svg"><g clip-path="url(#a)"><path d="M15 24a12.018 12.018 0 0 1-8.914-3.966 11.9 11.9 0 0 1-3.02-9.31A12.122 12.122 0 0 1 13.085.153a13.061 13.061 0 0 1 5.03.205 2.5 2.5 0 0 1 1.109 4.226c-4.56 4.166-4.164 10.644.807 14.41a2.5 2.5 0 0 1-.7 4.32c-1.398.457-2.86.689-4.331.687Zm.076-22a10.794 10.794 0 0 0-1.677.127 10.093 10.093 0 0 0-8.344 8.8A9.927 9.927 0 0 0 7.572 18.7a10.476 10.476 0 0 0 11.092 2.73.5.5 0 0 0 .139-.857c-5.93-4.478-6.4-12.486-.948-17.45a.459.459 0 0 0 .128-.465.49.49 0 0 0-.356-.361A10.657 10.657 0 0 0 15.076 2Z" fill="#8F9FAD"/></g><defs><clipPath id="a"><path fill="#fff" d="M0 0h24v24H0z"/></clipPath></defs></svg>