<svg width="24" height="24" fill="none" xmlns="http://www.w3.org/2000/svg"><g clip-path="url(#a)" fill="#8F9FAD"><path d="M7 22H5a3 3 0 0 1-3-3V5a3 3 0 0 1 3-3h2a1 1 0 0 0 0-2H5a5.006 5.006 0 0 0-5 5v14a5.006 5.006 0 0 0 5 5h2a1 1 0 0 0 0-2Z"/><path d="m23 11-15.777.032c.088-.163.197-.313.326-.446l3.879-3.879a1 1 0 1 0-1.414-1.414l-3.881 3.88a4 4 0 0 0 0 5.655l3.879 3.88a1 1 0 1 0 1.414-1.415l-3.88-3.879a2.009 2.009 0 0 1-.29-.382L23 13a1 1 0 0 0 0-2Z"/></g><defs><clipPath id="a"><path fill="#fff" d="M0 0h24v24H0z"/></clipPath></defs></svg>